<svg width="256" height="256" viewBox="0 0 256 256" fill="none" xmlns="http://www.w3.org/2000/svg">
<path d="M62.4002 182.4C71.4668 175.467 81.6002 170 92.8002 166C104 162 115.733 160 128 160C140.267 160 152 162 163.2 166C174.4 170 184.533 175.467 193.6 182.4C199.822 175.111 204.667 166.844 208.134 157.6C211.6 148.356 213.334 138.489 213.334 128C213.334 104.356 205.022 84.2222 188.4 67.6C171.778 50.9778 151.645 42.6667 128 42.6667C104.356 42.6667 84.2224 50.9778 67.6002 67.6C50.9779 84.2222 42.6668 104.356 42.6668 128C42.6668 138.489 44.4002 148.356 47.8668 157.6C51.3335 166.844 56.1779 175.111 62.4002 182.4ZM128 138.667C117.511 138.667 108.667 135.067 101.467 127.867C94.2668 120.667 90.6668 111.822 90.6668 101.333C90.6668 90.8445 94.2668 82 101.467 74.8C108.667 67.6 117.511 64 128 64C138.489 64 147.334 67.6 154.534 74.8C161.734 82 165.334 90.8445 165.334 101.333C165.334 111.822 161.734 120.667 154.534 127.867C147.334 135.067 138.489 138.667 128 138.667ZM128 234.667C113.245 234.667 99.3779 231.867 86.4002 226.267C73.4224 220.667 62.1335 213.067 52.5335 203.467C42.9335 193.867 35.3335 182.578 29.7335 169.6C24.1335 156.622 21.3335 142.756 21.3335 128C21.3335 113.244 24.1335 99.3778 29.7335 86.4C35.3335 73.4222 42.9335 62.1333 52.5335 52.5333C62.1335 42.9333 73.4224 35.3333 86.4002 29.7333C99.3779 24.1333 113.245 21.3333 128 21.3333C142.756 21.3333 156.622 24.1333 169.6 29.7333C182.578 35.3333 193.867 42.9333 203.467 52.5333C213.067 62.1333 220.667 73.4222 226.267 86.4C231.867 99.3778 234.667 113.244 234.667 128C234.667 142.756 231.867 156.622 226.267 169.6C220.667 182.578 213.067 193.867 203.467 203.467C193.867 213.067 182.578 220.667 169.6 226.267C156.622 231.867 142.756 234.667 128 234.667Z" fill="#322F35"/>
</svg>
